# xmcd
#
# Track frame offsets:
#	150
#	16560
#	30724
#	34058
#	50463
#	63209
#	65635
#	85510
#	93958
#	112103
#	115612
#	153485
#	161834
#	167455
#	181352
#
# Disc length: 2641 seconds
#
# Revision: 1
# Processed by: cddbd v1.5.2PL0 Copyright (c) Steve Scherf et al.
# Submitted via: audiograbber 1.83.01
#
DISCID=b10a4f0f
DTITLE=CCCinc. - To Our Grandchildren
DYEAR=1970
DGENRE=
TTITLE0=Little Magie
TTITLE1=I Don't Care
TTITLE2=Pay day at Coal Creek
TTITLE3=Willie Boy
TTITLE4=Tennesse Waltz
TTITLE5=Second Dance
TTITLE6=On a Junction
TTITLE7=Keep on Trucking
TTITLE8=The Visitor
TTITLE9=Good Grief
TTITLE10=Midnight Special
TTITLE11=Country Marriage
TTITLE12=(Part of a) Rag
TTITLE13=Old Joe Clark
TTITLE14=Rye Whiskey
EXTD=
EXTT0=
EXTT1=
EXTT2=
EXTT3=
EXTT4=
EXTT5=
EXTT6=
EXTT7=
EXTT8=
EXTT9=
EXTT10=
EXTT11=
EXTT12=
EXTT13=
EXTT14=
PLAYORDER=
